 <svg  version="1.0" xmlns="http://www.w3.org/2000/svg"  width="500.000000pt" height="500.000000pt" viewBox="0 0 300.000000 300.000000"  preserveAspectRatio="xMidYMid meet">  <g transform="translate(0.000000,300.000000) scale(0.100000,-0.100000)" fill="#f5f5f5" stroke="none"> <path d="M2070 2310 l0 -180 -180 0 -180 0 0 -110 0 -110 180 0 180 0 0 -180 0 -180 116 0 115 0 -2 178 -2 177 176 3 177 2 0 113 0 112 -177 0 -176 0 2 178 2 177 -115 0 -116 0 0 -180z m187 138 c4 -7 9 -80 10 -162 2 -121 5 -152 18 -165 12 -13 48 -17 173 -21 l157 -5 0 -75 0 -75 -155 -3 c-125 -2 -157 -6 -172 -19 -16 -14 -18 -34 -18 -163 0 -182 0 -182 -95 -178 l-70 3 -5 156 c-7 209 5 198 -199 201 l-156 3 0 75 0 75 157 3 c206 3 198 -5 198 202 0 81 3 150 7 153 12 13 141 8 150 -5z"/> <path d="M1270 1844 l0 -287 -46 43 c-106 98 -271 132 -449 95 -268 -57 -425 -278 -425 -598 0 -118 20 -207 63 -293 65 -129 168 -219 305 -266 53 -18 89 -23 172 -23 149 0 249 36 341 122 l48 45 19 -64 20 -63 76 -3 76 -3 0 791 0 790 -100 0 -100 0 0 -286z m158 -505 l2 -747 -28 -4 c-43 -6 -50 -1 -73 53 -34 78 -63 84 -118 25 -38 -40 -100 -73 -182 -96 -280 -77 -551 77 -623 357 -21 79 -21 266 -1 352 37 154 125 269 256 335 90 45 162 59 278 54 113 -5 178 -29 260 -95 29 -24 57 -43 61 -43 4 0 15 9 26 21 17 19 19 41 22 268 1 135 5 252 7 259 3 9 21 12 57 10 l53 -3 3 -746z"/> <path d="M850 1570 c-208 -37 -331 -208 -330 -459 1 -163 44 -276 141 -365 48 -45 73 -60 131 -77 92 -28 220 -23 288 11 162 82 238 236 227 465 -8 166 -52 269 -150 349 -78 64 -203 95 -307 76z m163 -45 c170 -44 261 -192 260 -421 -1 -207 -95 -363 -246 -406 -61 -17 -176 -13 -239 8 -74 24 -167 117 -196 196 -71 191 -29 453 89 552 91 77 212 102 332 71z"/> <path d="M1530 653 c0 -7 7 -13 15 -13 11 0 15 -12 15 -50 0 -38 4 -50 15 -50 11 0 15 12 15 50 0 38 4 50 15 50 8 0 15 4 15 9 0 5 -20 11 -45 13 -31 2 -45 -1 -45 -9z"/> <path d="M1640 599 c0 -44 3 -59 13 -56 7 2 11 17 9 36 -3 37 13 42 22 6 4 -14 13 -25 21 -25 8 0 17 11 21 25 9 36 26 31 22 -7 -2 -18 2 -33 10 -35 9 -3 12 12 12 56 0 54 -2 61 -20 61 -11 0 -20 -6 -20 -13 0 -7 -7 -22 -15 -33 -14 -18 -15 -18 -27 14 -7 19 -19 32 -30 32 -15 0 -18 -9 -18 -61z"/> </g> </svg> 