<?xml version="1.0" encoding="UTF-8"?> <svg xmlns="http://www.w3.org/2000/svg" xmlns:xlink="http://www.w3.org/1999/xlink" version="1.1" id="Orange_and_Blue_-_On_White" x="0px" y="0px" viewBox="0 0 674.7 133.9" style="enable-background:new 0 0 674.7 133.9;" xml:space="preserve"> <style type="text/css"> .st0{fill:#0E3551;} .st1{fill:#FF7B00;} </style> <path class="st0" d="M30.9,40.6c8.8,0,16.8,3.9,21.2,10.1h0.2V14.4H60v91.4h-5.5L52,97.6h-0.2c-3.6,6.1-12.8,10.1-21.8,10.1 C15.2,107.7,0,97.6,0,75.4V73C0,54.1,10.5,40.6,30.9,40.6z M7.9,74.4c0,14.4,7.3,26.4,22.9,26.4c15.3,0,21.9-12.4,21.9-26.2 c0-14.1-6.2-26.9-21.9-26.9C14.6,47.7,7.9,59.2,7.9,74.4z"></path> <path class="st0" d="M233.4,107.8c-8.8,0-16.9-3.9-21.2-10.1H212v36.3h-7.6V42.5h5.4l2.6,8.2h0.2c3.6-6.1,12.8-10.1,21.8-10.1 c14.7,0,29.9,10.1,29.9,32.3v2.4C264.3,94.2,253.8,107.8,233.4,107.8L233.4,107.8z M256.5,73.9c0-14.5-7.4-26.4-22.9-26.4 c-15.3,0-21.9,12.4-21.9,26.2c0,14.1,6.2,26.9,21.9,26.9C249.7,100.7,256.5,89.1,256.5,73.9z"></path> <path class="st0" d="M125.8,88.7c-2.9,11.8-12.9,19-26.1,19c-18.1,0-29.7-12.7-29.7-33v-1.4c0-19.9,11-32.8,29.4-32.8 c20.5,0,28,16.7,28,32.9c0,0.9,0,1.9-0.1,2.8H77.9c0.6,14,8,24.3,21.7,24.3c9.8,0,16-4.6,18.5-11.9L125.8,88.7z M99.6,47.5 c-13.2,0-20.3,8.5-21.5,21.9h41.6C118.4,59.3,114.3,47.5,99.6,47.5L99.6,47.5z"></path> <path class="st0" d="M192.7,88.7c-2.9,11.8-12.9,19-26.1,19c-18.1,0-29.7-12.7-29.7-33v-1.4c0-19.9,11-32.8,29.4-32.8 c20.5,0,28,16.7,28,32.9c0,0.9,0,1.9-0.1,2.8h-49.4c0.6,14,8,24.3,21.7,24.3c9.8,0,16-4.6,18.5-11.9L192.7,88.7z M166.5,47.5 c-13.2,0-20.3,8.5-21.5,21.9h41.6C185.2,59.3,181.2,47.5,166.5,47.5L166.5,47.5z"></path> <path class="st0" d="M297.9,25.9c0,6.6-5.6,10.3-12.2,10.3s-12.2-3.7-12.2-10.3V25c0-6.6,5.4-10.5,12.2-10.5 c6.6,0,12.2,3.9,12.2,10.5V25.9z M275.7,105.9V42.5h20v63.4H275.7z"></path> <path class="st0" d="M328.6,105.8h-19.9V42.5h15.5l2.5,8.2h0.3c4.3-7.1,10.6-10.1,18.8-10.1c15.5,0,23,10.3,23,22.6v42.7h-19.9V69.1 c0-8.4-4.2-12-9.8-12c-6.5,0-10.4,3.9-10.4,12V105.8z"></path> <path class="st0" d="M418,43.3v14.3h-14.4v27.3c0,4.7,2.4,6.3,6.2,6.3c2.7-0.2,5.4-0.8,7.9-2h1.6v14.7c-3,1.9-9.8,3.3-14.2,3.3 c-12.2,0-21.4-5.3-21.4-20.2V57.5h-8v-9.2c10.5-4.6,15-10.9,19.8-20.2h8.1v15.1H418z"></path> <path class="st0" d="M488.9,72c0,2.5-0.1,5.7-0.2,7H445c0.8,7.9,5.4,13.7,13.7,13.7c5.2,0,9.5-1.8,11.4-6.6h18.6 c-3,14.6-16.1,21.8-30.5,21.8c-18,0-33.5-12.2-33.5-32.4v-2.2c0-19.9,14.6-32.8,32.7-32.8C473.6,40.4,488.9,50.7,488.9,72L488.9,72z M458,54.6c-7.8,0-11.5,5.1-12.5,11.6h23.7C469.2,59.4,464.7,54.6,458,54.6L458,54.6z"></path> <path class="st0" d="M518,105.8h-19.9V42.5h15.4l2.5,8.2h0.2c4.3-7.1,10.7-10.1,18.8-10.1c15.5,0,22.9,10.3,22.9,22.6v42.7h-19.9 V69.1c0-8.4-4.2-12-9.8-12c-6.5,0-10.4,4-10.4,12V105.8z"></path> <path class="st0" d="M607.9,43.3v14.3H593v27.3c0,4.7,2.4,6.3,6.2,6.3c2.7-0.2,5.4-0.8,7.9-2h1.5v14.7c-3,1.9-9.8,3.3-14.2,3.3 c-12.2,0-21.4-5.4-21.4-20.2V57.5h-8v-9.2c10.5-4.6,15-10.9,19.8-20.2h8.1v15.1H607.9z"></path> <polygon class="st1" points="674.7,21.8 653,21.8 653,21.8 653,0.1 653,0 638.9,0 638.9,0.1 638.9,21.8 638.9,21.8 617.1,21.8 617.1,35.8 638.9,35.8 638.9,35.8 638.9,57.6 653,57.6 653,35.8 653,35.8 674.7,35.8 "></polygon> <path class="st0" d="M623,107.4c-1,0-2-0.2-2.9-0.6c-1.8-0.8-3.2-2.2-4-4c-0.8-1.8-0.8-3.9,0-5.8c0.4-0.9,0.9-1.7,1.6-2.4 c0.7-0.7,1.5-1.2,2.4-1.6c1.9-0.8,4-0.8,5.8,0c0.9,0.4,1.7,0.9,2.4,1.6c0.7,0.7,1.2,1.5,1.6,2.4c0.8,1.8,0.8,3.9,0,5.8 c-0.4,0.9-0.9,1.7-1.6,2.4c-0.7,0.7-1.5,1.2-2.4,1.6C625,107.2,624,107.4,623,107.4z M623,94.1c-0.8,0-1.5,0.2-2.2,0.5 c-0.7,0.3-1.3,0.7-1.8,1.3c-0.5,0.5-0.9,1.2-1.2,1.9c-0.6,1.5-0.6,3.1,0,4.6c0.3,0.7,0.7,1.3,1.2,1.9c0.5,0.5,1.1,1,1.8,1.3 c1.4,0.6,3,0.6,4.4,0c0.7-0.3,1.3-0.7,1.8-1.3c0.5-0.5,0.9-1.2,1.2-1.9c0.6-1.5,0.6-3.1,0-4.6c-0.3-0.7-0.7-1.3-1.2-1.9 c-0.5-0.5-1.1-1-1.8-1.3C624.6,94.2,623.8,94.1,623,94.1z M626.2,98.7c0,0.5-0.1,1-0.4,1.3c-0.3,0.4-0.7,0.7-1.1,0.9l1.8,2.4v0.4 h-1.7l-1.8-2.6H622v2.6h-1.7V96h3.2c0.3,0,0.7,0.1,1,0.2c0.3,0.1,0.6,0.3,0.9,0.5c0.2,0.2,0.5,0.5,0.6,0.8c0.1,0.3,0.2,0.7,0.2,1 L626.2,98.7z M622,97.6v2.1h1.2c0.4,0,0.7-0.1,1-0.3c0.2-0.2,0.3-0.5,0.3-0.8c0-0.3-0.1-0.5-0.2-0.8c-0.2-0.2-0.5-0.3-0.9-0.3H622z"></path> </svg> 