 <svg version="1.0" xmlns="http://www.w3.org/2000/svg"  width="300.000000pt" height="300.000000pt" viewBox="0 0 300.000000 300.000000"  preserveAspectRatio="xMidYMid meet">  <g transform="translate(0.000000,300.000000) scale(0.100000,-0.100000)" fill="#f5f5f5" stroke="none"> <path d="M2080 2473 c-1 -5 -1 -80 -1 -167 0 -103 -4 -165 -11 -173 -9 -11 -49 -14 -177 -12 l-166 1 0 -102 0 -102 171 1 c150 2 172 0 178 -14 3 -9 6 -91 6 -181 l0 -164 105 0 105 0 2 178 3 177 173 3 173 2 -3 101 -3 101 -160 -1 c-88 -1 -165 2 -172 7 -9 5 -13 58 -14 180 l-2 172 -103 0 c-57 0 -104 -3 -104 -7z m177 -30 c-4 -3 -10 -3 -14 0 -3 4 0 7 7 7 7 0 10 -3 7 -7z m350 -360 c-4 -3 -7 0 -7 7 0 7 3 10 7 7 3 -4 3 -10 0 -14z m0 -90 c-4 -3 -7 0 -7 7 0 7 3 10 7 7 3 -4 3 -10 0 -14z"/> <path d="M1270 1844 l0 -287 -44 41 c-107 99 -273 135 -449 97 -266 -56 -427 -280 -427 -592 1 -274 130 -477 355 -559 178 -65 399 -26 524 91 l49 46 22 -66 22 -65 74 0 74 0 0 790 0 790 -100 0 -100 0 0 -286z m-195 -338 c193 -95 264 -416 142 -649 -58 -112 -157 -170 -291 -170 -119 -1 -176 22 -252 97 -45 45 -67 77 -83 121 -61 164 -38 388 53 508 36 48 120 102 180 116 71 17 190 6 251 -23z"/> <path d="M1530 650 c0 -5 6 -10 14 -10 16 0 23 -22 22 -62 -1 -17 4 -28 11 -28 9 0 13 15 13 45 0 33 4 45 15 45 8 0 15 5 15 10 0 6 -20 10 -45 10 -25 0 -45 -4 -45 -10z"/> <path d="M1640 605 c0 -30 5 -55 10 -55 6 0 10 14 10 30 0 36 15 40 24 5 4 -14 13 -25 21 -25 8 0 17 11 21 25 9 35 24 31 24 -5 0 -16 5 -30 10 -30 6 0 10 25 10 55 0 48 -2 55 -20 55 -11 0 -20 -6 -20 -13 0 -7 -7 -22 -15 -33 -14 -18 -15 -18 -27 14 -7 19 -19 32 -30 32 -15 0 -18 -9 -18 -55z"/> </g> </svg> 